<?xml version="1.0" encoding="utf-8"?>
<!-- Generator: Adobe Illustrator 15.0.0, SVG Export Plug-In . SVG Version: 6.00 Build 0)  -->
<!DOCTYPE svg PUBLIC "-//W3C//DTD SVG 1.1//EN" "http://www.w3.org/Graphics/SVG/1.1/DTD/svg11.dtd">
<svg version="1.1" id="Layer_1" xmlns="http://www.w3.org/2000/svg" xmlns:xlink="http://www.w3.org/1999/xlink" x="0px" y="0px"
	 width="352px" height="416px" viewBox="0 0 352 416" enable-background="new 0 0 352 416" xml:space="preserve">
<g>
	<g opacity="0.5">
		<path fill="#5B6775" d="M8.06,11.175l-1.061,3.182c0,0,3.241-1.12,3.182-1.062C10.181,12.117,9.181,11.175,8.06,11.175z
			 M16.546,2.689l-7.779,7.777c1.002,0,2.121,1.12,2.121,2.121c-0.059-0.059,7.838-7.837,7.778-7.778
			C18.667,3.808,17.665,2.689,16.546,2.689z M20.081,1.982c-0.641-0.642-0.089-0.089-0.707-0.707
			c-0.619-0.619-1.414-0.001-1.414-0.001s-0.648,0.648-0.707,0.708c1.002,0,2.121,1.119,2.121,2.12l0.707-0.707
			C20.08,3.396,20.722,2.623,20.081,1.982z M16,16H2V2h13.82l0.312-0.311h0.009l0.397-0.406c0.059-0.061,0.715-0.715,0.715-0.715
			l0.044-0.045l0.021-0.017C16.966,0.195,16.507,0,16,0H2C0.896,0,0,0.896,0,2v14c0,1.105,0.896,2,2,2h14c1.104,0,2-0.895,2-2V6.871
			c-0.579,0.572-1.278,1.265-2,1.98V16z"/>
	</g>
	<g>
		<path fill="#FFFFFF" d="M8.06,12.175l-1.061,3.182c0,0,3.241-1.12,3.182-1.062C10.181,13.117,9.181,12.175,8.06,12.175z
			 M16.546,3.689l-7.779,7.777c1.002,0,2.121,1.12,2.121,2.121c-0.059-0.059,7.838-7.837,7.778-7.778
			C18.667,4.808,17.665,3.689,16.546,3.689z M20.081,2.982c-0.641-0.642-0.089-0.089-0.707-0.707
			c-0.619-0.619-1.414-0.001-1.414-0.001s-0.648,0.648-0.707,0.708c1.002,0,2.121,1.119,2.121,2.12l0.707-0.707
			C20.08,4.396,20.722,3.623,20.081,2.982z M16,17H2V3h13.82l0.312-0.311h0.009l0.397-0.406c0.059-0.061,0.715-0.715,0.715-0.715
			l0.044-0.045l0.021-0.017C16.966,1.195,16.507,1,16,1H2C0.896,1,0,1.896,0,3v14c0,1.105,0.896,2,2,2h14c1.104,0,2-0.895,2-2V7.871
			c-0.579,0.572-1.278,1.265-2,1.98V17z"/>
	</g>
</g>
</svg>
